{
  "accessors": [
    {
      "bufferView": 2,
      "componentType": 5126,
      "count": 65532,
      "max": [
        2.9993350505828857,
        2.2654299736022949,
        133.12382507324219
      ],
      "min": [
        1.4930260181427002,
        0.67052799463272095,
        131.59375
      ],
      "type": "VEC3"
    },
    {
      "bufferView": 2,
      "byteOffset": 786384,
      "componentType": 5126,
      "count": 65532,
      "max": [
        0.99267160892486572,
        0.99951237440109253,
        0.98925912380218506
      ],
      "min": [
        -0.9992484450340271,
        -0.99999332427978516,
        -0.99999243021011353
      ],
      "type": "VEC3"
    },
    {
      "bufferView": 1,
      "componentType": 5126,
      "count": 65532,
      "max": [
        0.99098300933837891,
        0.88072597980499268
      ],
      "min": [
        0.0041749998927116394,
        0.0095229996368288994
      ],
      "type": "VEC2"
    },
    {
      "bufferView": 0,
      "componentType": 5125,
      "count": 363288,
      "max": [
        65531
      ],
      "min": [
        0
      ],
      "type": "SCALAR"
    },
    {
      "bufferView": 2,
      "byteOffset": 1572768,
      "componentType": 5126,
      "count": 65533,
      "max": [
        3.0242650508880615,
        2.2707118988037109,
        133.15440368652344
      ],
      "min": [
        1.4555050134658813,
        0.47151899337768555,
        131.68746948242188
      ],
      "type": "VEC3"
    },
    {
      "bufferView": 2,
      "byteOffset": 2359164,
      "componentType": 5126,
      "count": 65533,
      "max": [
        0.99999904632568359,
        0.99999451637268066,
        0.99998652935028076
      ],
      "min": [
        -0.99999833106994629,
        -0.99996751546859741,
        -0.98932170867919922
      ],
      "type": "VEC3"
    },
    {
      "bufferView": 1,
      "byteOffset": 524256,
      "componentType": 5126,
      "count": 65533,
      "max": [
        0.98622697591781616,
        0.99352097511291504
      ],
      "min": [
        0.086051002144813538,
        0.0032639999408274889
      ],
      "type": "VEC2"
    },
    {
      "bufferView": 0,
      "byteOffset": 1453152,
      "componentType": 5125,
      "count": 341481,
      "max": [
        65532
      ],
      "min": [
        0
      ],
      "type": "SCALAR"
    },
    {
      "bufferView": 2,
      "byteOffset": 3145560,
      "componentType": 5126,
      "count": 40599,
      "max": [
        2.9829950332641602,
        2.2703289985656738,
        133.15414428710938
      ],
      "min": [
        1.4927020072937012,
        0.92065697908401489,
        131.69943237304688
      ],
      "type": "VEC3"
    },
    {
      "bufferView": 2,
      "byteOffset": 3632748,
      "componentType": 5126,
      "count": 40599,
      "max": [
        0.99989056587219238,
        0.99996733665466309,
        0.99997025728225708
      ],
      "min": [
        -0.99655985832214355,
        -0.99691194295883179,
        -0.99720168113708496
      ],
      "type": "VEC3"
    },
    {
      "bufferView": 1,
      "byteOffset": 1048520,
      "componentType": 5126,
      "count": 40599,
      "max": [
        0.98312598466873169,
        0.99085098505020142
      ],
      "min": [
        0.20649200677871704,
        0.012397999875247478
      ],
      "type": "VEC2"
    },
    {
      "bufferView": 0,
      "byteOffset": 2819076,
      "componentType": 5125,
      "count": 195633,
      "max": [
        40598
      ],
      "min": [
        0
      ],
      "type": "SCALAR"
    }
  ],
  "asset": {
    "extras": {
      "author": "nash808 (https://sketchfab.com/nash808)",
      "license": "CC-BY-4.0 (http://creativecommons.org/licenses/by/4.0/)",
      "source": "https://sketchfab.com/3d-models/pumpkin-1-c6fdc5d187b14eb1ac4907b946601e21",
      "title": "Pumpkin_1"
    },
    "generator": "Sketchfab-9.52.0",
    "version": "2.0"
  },
  "bufferViews": [
    {
      "buffer": 0,
      "byteLength": 3601608,
      "byteOffset": 0,
      "name": "floatBufferViews",
      "target": 34963
    },
    {
      "buffer": 0,
      "byteLength": 1373312,
      "byteOffset": 3601608,
      "byteStride": 8,
      "name": "floatBufferViews",
      "target": 34962
    },
    {
      "buffer": 0,
      "byteLength": 4119936,
      "byteOffset": 4974920,
      "byteStride": 12,
      "name": "floatBufferViews",
      "target": 34962
    }
  ],
  "buffers": [
    {
      "byteLength": 9094856,
      "uri": "scene.bin"
    }
  ],
  "extensionsRequired": [
    "KHR_materials_pbrSpecularGlossiness"
  ],
  "extensionsUsed": [
    "KHR_materials_pbrSpecularGlossiness"
  ],
  "images": [
    {
      "uri": "textures/model_diffuse.jpeg"
    },
    {
      "uri": "textures/model_specularGlossiness.png"
    }
  ],
  "materials": [
    {
      "doubleSided": true,
      "emissiveFactor": [
        0,
        0,
        0
      ],
      "extensions": {
        "KHR_materials_pbrSpecularGlossiness": {
          "diffuseFactor": [
            1,
            1,
            1,
            1
          ],
          "diffuseTexture": {
            "index": 0,
            "texCoord": 0
          },
          "glossinessFactor": 0.48204372860539069,
          "specularFactor": [
            0,
            0,
            0
          ],
          "specularGlossinessTexture": {
            "index": 1,
            "texCoord": 0
          }
        }
      },
      "name": "model"
    }
  ],
  "meshes": [
    {
      "primitives": [
        {
          "attributes": {
            "NORMAL": 1,
            "POSITION": 0,
            "TEXCOORD_0": 2
          },
          "indices": 3,
          "material": 0,
          "mode": 4
        }
      ]
    },
    {
      "primitives": [
        {
          "attributes": {
            "NORMAL": 5,
            "POSITION": 4,
            "TEXCOORD_0": 6
          },
          "indices": 7,
          "material": 0,
          "mode": 4
        }
      ]
    },
    {
      "primitives": [
        {
          "attributes": {
            "NORMAL": 9,
            "POSITION": 8,
            "TEXCOORD_0": 10
          },
          "indices": 11,
          "material": 0,
          "mode": 4
        }
      ]
    }
  ],
  "nodes": [
    {
      "children": [
        1
      ],
      "name": "RootNode (gltf orientation matrix)",
      "rotation": [
        -0.70710678118654746,
        -0,
        -0,
        0.70710678118654757
      ]
    },
    {
      "children": [
        2
      ],
      "matrix": [
        0.99939948320388794,
        0.00069241144228726625,
        -0.034643515944480896,
        0,
        -0.02940688282251358,
        0.54576128721237183,
        -0.83742451667785645,
        0,
        0.018327247351408005,
        0.83794039487838745,
        0.54545390605926514,
        0,
        -2.3843917846679688,
        -110.30052947998047,
        61.396034240722656,
        1
      ],
      "name": "RootNode (model correction matrix)"
    },
    {
      "children": [
        3,
        4,
        5
      ],
      "name": "model.obj.cleaner.materialmerger.gles"
    },
    {
      "mesh": 0,
      "name": ""
    },
    {
      "mesh": 1,
      "name": ""
    },
    {
      "mesh": 2,
      "name": ""
    }
  ],
  "samplers": [
    {
      "magFilter": 9729,
      "minFilter": 9987,
      "wrapS": 10497,
      "wrapT": 10497
    }
  ],
  "scene": 0,
  "scenes": [
    {
      "name": "OSG_Scene",
      "nodes": [
        0
      ]
    }
  ],
  "textures": [
    {
      "sampler": 0,
      "source": 0
    },
    {
      "sampler": 0,
      "source": 1
    }
  ]
}

